<mxfile host="app.diagrams.net" modified="2021-11-03T13:04:45.370Z" agent="5.0 (Windows)" etag="aQGAQHAcjGOJQeYWzd_Z" version="15.6.8" type="github">
  <diagram id="r5_h_yE8-FVZ0Pbblisg" name="Page-1">
    <mxGraphModel dx="806" dy="508" grid="1" gridSize="10" guides="1" tooltips="1" connect="1" arrows="1" fold="1" page="1" pageScale="1" pageWidth="850" pageHeight="1100" math="0" shadow="0">
      <root>
        <mxCell id="0" />
        <mxCell id="1" parent="0" />
        <mxCell id="3Q2bsq_tilKYyizaQaDQ-1" value="chiều nay không có mưa bay" style="rounded=0;whiteSpace=wrap;html=1;" vertex="1" parent="1">
          <mxGeometry x="430" y="350" width="120" height="60" as="geometry" />
        </mxCell>
      </root>
    </mxGraphModel>
  </diagram>
</mxfile>
